<svg width="59" height="59" viewBox="0 0 59 59" fill="none" xmlns="http://www.w3.org/2000/svg">
<g clip-path="url(#clip0_9703_127)">
<path d="M2.2846 40.8709C3.89121 27.7318 10.5881 23.5174 16.5845 19.7832C22.7075 15.9685 28.0035 12.6273 27.3664 0.0738525C24.5734 0.273463 21.8234 0.872243 19.2002 1.85194C19.4666 11.8148 14.747 14.7694 10.1673 17.6226C5.3303 20.6353 0.761089 23.4818 0.474854 34.7149C0.85738 36.8531 1.46546 38.9174 2.2846 40.8709Z" fill="white"/>
<path d="M8.7717 15.3828C13.0402 12.7223 16.4921 10.5458 16.57 2.98502C8.80072 6.79314 2.94412 13.9174 0.848145 22.5018C2.99952 18.9812 5.98982 17.1147 8.7717 15.3828ZM9.55127 51.2097C10.5907 37.2066 16.7348 32.3195 22.693 27.5881C29.1656 22.449 35.2821 17.5791 34.9378 0.494646C33.3084 0.191611 31.6564 0.0261456 29.9992 0C30.6825 14.0625 24.2389 18.1225 17.9787 22.0216C11.6367 25.9722 5.09154 30.0732 4.58766 45.2647C5.97562 47.4545 7.64434 49.4532 9.55127 51.2097ZM41.1439 35.8137C47.0559 31.069 52.6329 26.5526 52.3348 10.8083C50.741 8.86835 48.9079 7.13805 46.8792 5.65875C46.7961 22.8592 40.1098 28.2357 33.6293 33.4354C27.53 38.3304 21.7723 42.9616 21.3502 57.8577C23.7825 58.5568 26.3402 58.9539 28.9836 59.0014C29.6787 45.055 35.4971 40.3473 41.1439 35.8137ZM51.0527 41.9671C46.8185 44.5471 43.1463 46.8093 42.7189 55.8818C50.8377 51.802 56.8222 44.0881 58.5264 34.8824C56.6244 38.5679 53.7396 40.3301 51.0527 41.9671Z" fill="white"/>
<path d="M49.6809 39.7154C54.2158 36.9506 58.5014 34.3415 57.9791 22.2102L58.1149 22.2049C57.4241 19.5033 56.351 16.9143 54.9281 14.5162C54.3042 28.5905 48.4713 33.318 42.7981 37.8713C37.3992 42.2005 32.3063 46.3251 31.6323 58.9274C34.5101 58.7238 37.3422 58.0971 40.0373 57.0675C40.1982 45.4941 45.2344 42.4247 49.6809 39.7154ZM31.9805 31.3776C38.4637 26.1766 44.5893 21.2499 44.2306 3.93339C42.1416 2.72606 39.9119 1.78065 37.5918 1.11853C37.7804 18.9785 30.9477 24.4025 24.3339 29.6536C18.3111 34.4352 12.6273 38.978 12.0852 53.2937C14.1409 54.8037 16.384 56.0404 18.7583 56.9726C19.4099 41.5066 25.7915 36.3439 31.9805 31.3776Z" fill="white"/>
</g>
<defs>
<clipPath id="clip0_9703_127">
<rect width="59" height="59" fill="white"/>
</clipPath>
</defs>
</svg>
