<svg width="60" height="72" viewBox="0 0 60 72" fill="none" xmlns="http://www.w3.org/2000/svg">
<path d="M28.6104 71.6815C19.7781 71.6832 11.1235 71.6852 2.46894 71.6802C0.0121726 71.6787 0.0015429 71.6692 0.00126088 69.3027C-0.000935302 50.9574 -0.000466674 32.6122 0.0042944 14.2669C0.00492502 11.8448 0.0183095 11.8442 2.44552 11.841C5.0053 11.8375 7.56566 11.8026 10.1246 11.8475C11.2904 11.868 11.7566 11.4463 11.7333 10.2468C11.6776 7.38339 11.7274 4.51807 11.7199 1.65357C11.7175 0.76546 11.882 0.0772914 12.9967 0.100633C19.9986 0.247248 27.027 -0.398426 34.0007 0.438743C46.7007 1.96333 57.0738 11.7841 59.4553 24.2906C62.8216 41.9692 50.2003 58.5148 32.2399 59.8687C30.6113 59.9915 30.1685 60.5594 30.2247 62.0881C30.323 64.7661 30.2297 67.4507 30.2615 70.132C30.274 71.1833 29.9151 71.7681 28.6104 71.6815ZM45.4862 21.25C41.8019 15.3558 36.542 12.3181 29.5333 12.3714C24.4157 12.4102 19.297 12.4168 14.1798 12.3546C12.7962 12.3377 12.2305 12.7077 12.2351 14.1931C12.2798 28.633 12.2802 43.073 12.2463 57.5129C12.243 58.9273 12.6874 59.4445 14.1356 59.4216C18.7041 59.3494 23.2751 59.3492 27.8437 59.4149C29.2888 59.4357 29.7792 58.9127 29.7417 57.4984C29.6705 54.8196 29.732 52.1374 29.7328 49.4566C29.7331 48.4614 29.8781 47.7728 31.1812 47.6346C44.5564 46.2163 51.6129 33.3983 45.4862 21.25Z" fill="white"/>
</svg>
